<svg fill="rgba(255, 255, 255)" xmlns="http://www.w3.org/2000/svg" xmlns:xlink="http://www.w3.org/1999/xlink" height="800px" width="800px" id="Layer_1" viewBox="0 0 512 512" xml:space="preserve"><g>	<g>		<path d="M505.447,96.49c-6.639-21.012-18.396-40.372-34-55.987l-0.001-0.002c-15.623-15.622-34.99-27.376-55.998-33.99   c-25.308-8.005-52.261-8.64-77.922-1.84c-19.988,5.259-38.099,14.68-53.809,27.986c-2.924,2.459-5.799,5.099-8.542,7.844   l-61.559,61.558c-2.748,2.749-5.386,5.623-7.825,8.522c-13.319,15.724-22.743,33.834-28.01,53.815   c-5.746,21.67-6.159,44.65-1.237,66.504c-0.039,2.729-0.117,6.678-0.279,11.333c-0.932,26.857-3.309,42.907-5.532,51.608   l-9.044-9.042l-34.68,34.679l15.39,15.39L0.044,477.224L34.82,512l142.356-142.355l15.289,15.289l34.69-34.676l-9.045-9.044   c8.701-2.223,24.752-4.601,51.612-5.533c4.662-0.162,8.574-0.24,11.267-0.278c10.067,2.269,20.408,3.431,30.758,3.431   c12.127,0,24.177-1.567,35.8-4.654c19.964-5.263,38.069-14.688,53.795-27.996c2.922-2.458,5.796-5.097,8.541-7.842l61.56-61.572   c2.746-2.747,5.384-5.62,7.826-8.522c13.322-15.742,22.747-33.848,28.009-53.804C514.086,148.766,513.452,121.809,505.447,96.49z    M488.226,96.77L461.8,123.197L431.073,92.47l34.377-34.378C475.444,69.501,483.079,82.465,488.226,96.77z M234.846,204.049   l26.884-26.884l30.732,30.733l-26.883,26.884L234.846,204.049z M253.986,246.376l-34.37,34.371   c-9.902-11.352-17.666-24.529-22.781-38.685l26.418-26.418L253.986,246.376z M369.412,130.944l-26.882,26.884L311.8,127.097   l26.882-26.882L369.412,130.944z M350.276,88.621l26.88-26.881l30.729,30.729l-26.88,26.881L350.276,88.621z M330.935,169.422   l-26.881,26.882l-30.73-30.733l26.881-26.881L330.935,169.422z M304.055,219.491l30.726,30.729L307.9,277.103l-30.727-30.727   L304.055,219.491z M315.649,207.898l26.881-26.882l30.726,30.728l-26.88,26.882L315.649,207.898z M354.124,169.422l26.883-26.884   l30.727,30.727l-26.883,26.885L354.124,169.422z M392.599,130.944l26.88-26.881l30.727,30.727l-26.88,26.882L392.599,130.944z    M453.849,46.504l-34.37,34.371l-30.728-30.729l26.414-26.414C429.312,28.834,442.491,36.596,453.849,46.504z M373.335,16.398   c7.93,0,15.855,0.772,23.671,2.304l-19.849,19.849l-20.942-20.943C361.898,16.81,367.617,16.398,373.335,16.398z M337.222,21.807   l28.34,28.339l-26.881,26.881l-37.357-37.357C312.211,31.734,324.237,25.748,337.222,21.807z M286.768,52.093   c0.632-0.632,1.29-1.237,1.936-1.856l38.383,38.383l-26.882,26.882l-38.422-38.424L286.768,52.093z M225.208,113.654   l24.982-24.982l38.422,38.424l-26.881,26.881l-38.382-38.384C223.968,114.946,224.574,114.288,225.208,113.654z M212.782,128.213   l37.355,37.357l-26.885,26.885l-28.343-28.343C198.856,151.132,204.842,139.107,212.782,128.213z M190.712,183.101l20.948,20.948   l-19.843,19.843C189.195,210.464,188.826,196.635,190.712,183.101z M34.82,488.814l-11.59-11.59l130.762-130.763l11.59,11.59   L34.82,488.814z M192.468,361.751l-7.094-7.094v-0.012l-25.188-25.176l-9.99-9.99l11.491-11.492l42.282,42.271L192.468,361.751z    M205.176,328.282l-21.51-21.506c2.631-5.925,5.562-16.836,7.45-38.034c6.122,10.808,13.697,20.8,22.497,29.602   c8.797,8.797,18.783,16.368,29.577,22.487C222.003,322.719,211.098,325.651,205.176,328.282z M269.883,315.123   c-14.144-5.11-27.32-12.875-38.675-22.781l34.371-34.372l30.727,30.728L269.883,315.123z M288.055,320.138l19.846-19.847   l20.952,20.952C315.353,323.118,301.487,322.755,288.055,320.138z M347.845,317.047l-28.35-28.35l26.881-26.882l37.356,37.359   C372.838,307.112,360.816,313.102,347.845,317.047z M398.292,286.75c-0.633,0.633-1.291,1.238-1.938,1.857l-38.384-38.386   l26.88-26.881l38.422,38.424L398.292,286.75z M459.85,225.181l-24.984,24.989l-38.422-38.423l26.884-26.885l38.381,38.381   C461.089,223.889,460.484,224.547,459.85,225.181z M472.274,210.619l-37.353-37.353l26.881-26.882l28.348,28.348   C486.206,187.694,480.217,199.716,472.274,210.619z M494.344,155.741l-20.949-20.95l19.854-19.855   C495.885,128.389,496.25,142.163,494.344,155.741z"></path>	</g></g></svg>